PathFileType  4	(X/Y/Z) C:\Users\antoi\Documents\MyRepositories\mobilecap\ResultsAnalysis
DataRate	CameraRate	NumFrames	NumMarkers	Units	OrigDataRate	OrigDataStartFrame	OrigNumFrames
100.0	100.0	5	55	mm	100.0	391	781
Frame#	Time	r_knee			r_shank_antsup			r_ankle			r_calc			r_5meta			r_toe			L_knee			L_shank_antsup			L_ankle			L_calc			L_5meta			L_toe			r_mknee			r_mankle			L_mknee			L_mankle			r_sh2			r_sh3			r_sh4			L_sh2			L_sh3			r_thigh1			r_thigh2			r_thigh3			r_thigh4			r_thigh5			L_thigh1			L_thigh2			L_thigh3			L_thigh4			r.ASIS			r.PSIS			L.ASIS			L.PSIS			C7			R_Shoulder			L_Shoulder			R_Sternum			L_Sternum			R_humerus			R_elbow_med			R_elbow_lat			R_forearm			R_wrist_radius			R_wrist_ulna			L_humerus			L_elbow_med			L_elbow_lat			L_forearm			L_wrist_radius			L_wrist_ulna			R_HJC			L_HJC			R_HJC_reg			L_HJC_reg			
		X1	Y1	Z1	X2	Y2	Z2	X3	Y3	Z3	X4	Y4	Z4	X5	Y5	Z5	X6	Y6	Z6	X7	Y7	Z7	X8	Y8	Z8	X9	Y9	Z9	X10	Y10	Z10	X11	Y11	Z11	X12	Y12	Z12	X13	Y13	Z13	X14	Y14	Z14	X15	Y15	Z15	X16	Y16	Z16	X17	Y17	Z17	X18	Y18	Z18	X19	Y19	Z19	X20	Y20	Z20	X21	Y21	Z21	X22	Y22	Z22	X23	Y23	Z23	X24	Y24	Z24	X25	Y25	Z25	X26	Y26	Z26	X27	Y27	Z27	X28	Y28	Z28	X29	Y29	Z29	X30	Y30	Z30	X31	Y31	Z31	X32	Y32	Z32	X33	Y33	Z33	X34	Y34	Z34	X35	Y35	Z35	X36	Y36	Z36	X37	Y37	Z37	X38	Y38	Z38	X39	Y39	Z39	X40	Y40	Z40	X41	Y41	Z41	X42	Y42	Z42	X43	Y43	Z43	X44	Y44	Z44	X45	Y45	Z45	X46	Y46	Z46	X47	Y47	Z47	X48	Y48	Z48	X49	Y49	Z49	X50	Y50	Z50	X51	Y51	Z51	X52	Y52	Z52	X53	Y53	Z53	X54	Y54	Z54	X55	Y55	Z55	

391	3.90000000	-207.41657	553.14950	-451.88237	-184.73309	429.33630	-457.88439	-293.90178	101.26865	-448.27553	-360.71683	66.90029	-490.72905	-159.49677	36.78766	-403.90363	-123.73545	58.69662	-478.28919	-246.82942	543.83478	-805.52034	-214.68150	440.86098	-793.31102	-300.53374	97.93177	-799.19193	-361.63593	66.70620	-751.40853	-156.19063	35.64166	-828.97056	-125.35280	58.62012	-757.69305	-213.79033	534.43669	-581.21338	-266.73578	111.77935	-542.97169	-234.91524	534.40862	-674.91290	-275.00840	113.31950	-705.99765	-192.61569	314.17912	-475.08762	-245.11769	425.12200	-408.75719	-244.41568	307.69797	-407.45583	-294.35278	443.74323	-834.42336	-276.38139	324.51977	-850.41901	-90.28329	781.96281	-476.23118	-103.20112	670.28748	-488.31203	-136.08441	646.42507	-434.13838	-174.20672	781.25343	-401.87390	-185.60753	663.89467	-421.60578	-132.67411	793.62906	-818.54278	-144.13119	655.51152	-808.66188	-242.57255	796.85643	-851.56393	-252.94386	658.73585	-832.67139	-110.81864	1054.63348	-486.56902	-315.21637	1088.66025	-574.72931	-107.66972	1046.11887	-754.39495	-316.52524	1085.98511	-673.05415	-301.87594	1575.83008	-638.59439	-220.74739	1518.09629	-445.19943	-207.68354	1532.60705	-812.58720	-154.80669	1522.34410	-610.38117	-154.14874	1516.75282	-654.14630	-193.76156	1348.33369	-375.16799	-257.49657	1123.61681	-410.08786	-233.20279	1148.04167	-335.15232	-119.91499	1015.16754	-326.69476	-73.58745	905.62806	-316.14673	-104.83880	885.16989	-297.96262	-185.37589	1355.28804	-890.68211	-267.02829	1145.80853	-857.93583	-224.41975	1158.97644	-923.90054	-120.55315	1030.49052	-892.04224	-79.41784	920.72729	-909.89337	-114.50977	905.79657	-935.97878	-193.65180	974.72726	-521.74115	-189.32405	957.63561	-734.40343	-183.40330	973.80521	-521.63445	-185.75676	968.99556	-698.41991	
392	3.91000000	-207.42229	553.18009	-451.90712	-184.73899	429.37293	-457.86180	-293.89252	101.25983	-448.26486	-360.63443	66.85765	-490.70403	-159.48630	36.80813	-403.92093	-123.75670	58.69411	-478.31337	-246.83872	543.82047	-805.53485	-214.70454	440.83284	-793.29139	-300.53206	97.91079	-799.20262	-361.57347	66.72822	-751.43445	-156.18937	35.62380	-828.97782	-125.34445	58.59476	-757.70932	-213.79735	534.46819	-581.19612	-266.74703	111.75647	-542.98270	-234.96316	534.40309	-674.98428	-275.02754	113.34819	-705.98644	-192.60681	314.19141	-475.15026	-245.14946	425.12884	-408.74323	-244.39287	307.71706	-407.45533	-294.36284	443.71185	-834.37613	-276.39211	324.48887	-850.45053	-90.30533	781.97576	-476.27876	-103.18211	670.34083	-488.39912	-136.08371	646.44207	-434.11217	-174.21381	781.25537	-401.85524	-185.70550	663.89520	-421.68826	-132.69518	793.62768	-818.54416	-144.15615	655.49532	-808.67192	-242.60021	796.84156	-851.56737	-252.96872	658.72208	-832.66342	-110.85479	1054.61330	-486.56032	-315.30400	1088.73171	-574.57596	-107.70829	1046.12231	-754.38695	-316.54691	1085.97268	-673.06170	-301.99807	1575.89335	-638.74778	-220.81748	1518.11651	-445.19248	-207.72752	1532.62668	-812.58545	-154.87204	1522.36894	-610.40603	-154.23157	1516.77146	-654.13000	-193.85494	1348.36526	-375.17698	-257.48896	1123.57939	-410.11916	-233.22907	1148.05472	-335.13308	-119.94911	1015.26909	-326.54558	-73.61432	905.66283	-316.14162	-104.84406	885.23357	-297.91123	-185.35597	1355.34370	-890.67791	-266.96933	1145.86635	-858.04677	-224.37729	1158.98779	-923.91995	-120.49201	1030.52717	-892.04532	-79.33761	920.77983	-909.89289	-114.41353	905.82148	-935.95528	-193.70040	974.73308	-521.70449	-189.40094	957.64456	-734.36760	-183.56462	973.92548	-521.61629	-185.79584	968.97311	-698.39935	
393	3.92000000	-207.47973	553.16980	-451.93929	-184.75980	429.37127	-457.85742	-293.87590	101.23996	-448.20841	-360.72063	66.90730	-490.74457	-159.49484	36.78361	-403.91275	-123.77176	58.69177	-478.33367	-246.85334	543.81524	-805.54219	-214.71569	440.82366	-793.29560	-300.52774	97.88234	-799.18625	-361.54212	66.75941	-751.47470	-156.18860	35.62077	-828.98043	-125.32987	58.58361	-757.70368	-213.80499	534.50712	-581.17365	-266.75459	111.74754	-542.99227	-234.95967	534.40689	-674.97313	-275.04799	113.36865	-705.97927	-192.60309	314.17903	-475.19528	-245.11982	425.22752	-408.64899	-244.37489	307.74158	-407.45570	-294.36005	443.66798	-834.24034	-276.39517	324.48995	-850.43469	-90.31712	781.99434	-476.30093	-103.19340	670.34907	-488.42213	-136.11713	646.44411	-434.11351	-174.23887	781.26523	-401.82602	-185.74220	663.81729	-421.70673	-132.74158	793.62871	-818.56636	-144.19347	655.46459	-808.67074	-242.63045	796.82698	-851.57814	-252.98028	658.70493	-832.65833	-110.87536	1054.61573	-486.55198	-315.38826	1088.77471	-574.49115	-107.73622	1046.13072	-754.37899	-316.57892	1085.97626	-673.05994	-302.10950	1575.92517	-638.89849	-220.90416	1518.14451	-445.16405	-207.78241	1532.65478	-812.59164	-154.93594	1522.39337	-610.42061	-154.30330	1516.79656	-654.08252	-193.94237	1348.37977	-375.18765	-257.68499	1123.61851	-410.01796	-233.27252	1148.04141	-335.11561	-119.98101	1015.34317	-326.43964	-73.63612	905.69743	-316.08813	-104.90414	885.21063	-297.90656	-185.35315	1355.41323	-890.70218	-266.92837	1145.94588	-858.15467	-224.32986	1159.00642	-923.93823	-120.41757	1030.56570	-892.03315	-79.23831	920.83429	-909.85216	-114.31485	905.88760	-935.97266	-193.73962	974.74699	-521.67957	-189.45563	957.65710	-734.34287	-183.66899	973.98689	-521.61963	-185.80439	968.96782	-698.40216	
394	3.93000000	-207.52328	553.12631	-451.93560	-184.78625	429.35022	-457.86542	-293.89382	101.23421	-448.20172	-360.86060	66.97891	-490.80599	-159.52534	36.76458	-403.88600	-123.77042	58.68960	-478.32549	-246.88490	543.80218	-805.48140	-214.72565	440.82990	-793.29922	-300.52886	97.88654	-799.18980	-361.53373	66.77553	-751.47697	-156.19082	35.62460	-828.97959	-125.32984	58.60175	-757.68011	-213.80773	534.51738	-581.16880	-266.75209	111.75723	-542.99134	-234.95124	534.41548	-674.95641	-275.03277	113.35345	-705.99187	-192.60477	314.17413	-475.22877	-245.09098	425.30605	-408.62939	-244.37049	307.74748	-407.45650	-294.35452	443.63384	-834.10524	-276.40359	324.50308	-850.39743	-90.33687	782.00028	-476.29614	-103.21761	670.34623	-488.39815	-136.16343	646.43380	-434.12970	-174.25851	781.27040	-401.80319	-185.68540	663.84485	-421.55213	-132.78216	793.62925	-818.58717	-144.22294	655.45202	-808.66183	-242.66426	796.82428	-851.58997	-252.98866	658.70805	-832.66017	-110.89108	1054.62323	-486.54240	-315.41910	1088.79768	-574.49772	-107.74829	1046.13985	-754.37227	-316.60837	1085.98470	-673.04132	-302.17506	1575.86831	-638.88506	-221.00054	1518.16380	-445.12725	-207.84328	1532.70241	-812.58450	-155.00427	1522.42374	-610.39468	-154.37020	1516.82113	-654.02922	-194.03341	1348.36651	-375.22388	-258.11472	1123.86877	-409.69441	-233.33679	1148.00776	-335.10163	-120.02585	1015.36588	-326.40380	-73.64666	905.73262	-316.03788	-105.01228	885.12092	-297.98318	-185.36725	1355.48334	-890.72549	-266.90948	1145.99063	-858.19197	-224.28292	1159.03558	-923.96472	-120.33863	1030.62156	-892.04643	-79.12724	920.88440	-909.79860	-114.20966	905.98376	-936.00948	-193.76460	974.75980	-521.67117	-189.47880	957.66731	-734.33423	-183.69813	974.01995	-521.59966	-185.83164	968.97351	-698.38330	
395	3.94000000	-207.53546	553.06362	-451.92826	-184.80221	429.33636	-457.86104	-293.92020	101.24746	-448.24691	-360.75057	66.90149	-490.74373	-159.53617	36.79040	-403.87499	-123.76998	58.67094	-478.30029	-246.92750	543.78363	-805.37094	-214.73584	440.84323	-793.29150	-300.52870	97.94576	-799.25260	-361.53897	66.78305	-751.45062	-156.19050	35.63382	-828.97646	-125.33397	58.64454	-757.64572	-213.80794	534.51142	-581.17346	-266.74189	111.78386	-542.98029	-234.96575	534.41573	-674.97890	-275.01642	113.36058	-705.97410	-192.65234	314.17237	-475.22691	-245.19596	425.27568	-408.74005	-244.38471	307.73315	-407.45633	-294.37064	443.64604	-834.10086	-276.41424	324.49183	-850.39500	-90.38734	781.98938	-476.26286	-103.22700	670.36037	-488.36857	-136.17983	646.42948	-434.14504	-174.26816	781.27421	-401.78657	-185.65049	663.93167	-421.42148	-132.78913	793.63730	-818.58261	-144.23312	655.48365	-808.66027	-242.69234	796.83942	-851.59653	-253.00152	658.72940	-832.66552	-110.92002	1054.61574	-486.53329	-315.41980	1088.81769	-574.49151	-107.75380	1046.15637	-754.36024	-316.63447	1085.97795	-673.04171	-302.23968	1575.81331	-638.82426	-221.09806	1518.13764	-445.10967	-207.89885	1532.74876	-812.56166	-155.07462	1522.46375	-610.31859	-154.43897	1516.85287	-653.98787	-194.11887	1348.34058	-375.28317	-258.51141	1124.15763	-409.36780	-233.38740	1148.00063	-335.08863	-120.05716	1015.38177	-326.38683	-73.66805	905.76111	-316.00017	-105.08224	885.08287	-298.01848	-185.37182	1355.54437	-890.72427	-266.88622	1145.99352	-858.18727	-224.23900	1159.07103	-923.97443	-120.26454	1030.69766	-892.08083	-79.02359	920.93864	-909.77097	-114.10493	906.07063	-936.04549	-193.78562	974.76048	-521.66795	-189.49017	957.67785	-734.33160	-183.71222	974.07405	-521.55096	-185.89117	968.98016	-698.33042	
